<svg xmlns="http://www.w3.org/2000/svg" version="1.1" xmlns:xlink="http://www.w3.org/1999/xlink" xmlns:svgjs="http://svgjs.dev/svgjs" width="1440" height="560" preserveAspectRatio="none" viewBox="0 0 1440 560"><g mask="url(&quot;#SvgjsMask1020&quot;)" fill="none"><rect width="1440" height="560" x="0" y="0" fill="rgba(51, 39, 42, 1)"></rect><path d="M0,590.374C109.339,609.879,226.079,553.028,305.543,475.434C380.121,402.611,357.842,277.225,411.941,188.127C477.191,80.663,634.472,31.016,651.055,-93.608C667.635,-218.209,588.872,-345.617,493.922,-427.986C403.112,-506.763,271.38,-498.427,154.076,-524.734C45.329,-549.122,-64.935,-615.713,-169.343,-576.73C-272.945,-538.048,-299.21,-405.297,-376.818,-326.514C-461.916,-240.127,-624.588,-212.237,-645.977,-92.877C-667.216,25.649,-552.49,125.101,-474.127,216.527C-411.691,289.371,-318.029,318.234,-242.692,377.637C-156.469,445.623,-108.096,571.091,0,590.374" fill="#291f22"></path><path d="M1440 1111.0439999999999C1540.63 1090.183 1582.843 971.5029999999999 1663.649 908.005 1734.17 852.5889999999999 1845.041 843.565 1883.498 762.539 1921.988 681.4449999999999 1872.49 588.471 1857.299 500.001 1842.571 414.227 1851.539 318.53499999999997 1795.788 251.70800000000003 1739.769 184.56 1644.76 172.89100000000002 1561.6680000000001 145.63799999999998 1475.772 117.46499999999997 1385.904 56.29399999999998 1301.915 89.726 1217.638 123.27300000000002 1216.713 247.12400000000002 1150.625 309.255 1072.5819999999999 382.625 930.6800000000001 382.88 886.364 480.399 841.996 578.034 883.973 696.072 931.058 792.4259999999999 977.442 887.345 1058.0529999999999 958.925 1147.599 1014.9839999999999 1236.354 1070.548 1337.467 1132.3 1440 1111.0439999999999" fill="#3d2f32"></path></g><defs><mask id="SvgjsMask1020"><rect width="1440" height="560" fill="#ffffff"></rect></mask></defs></svg>